<svg data-name="Layer 1" xmlns="http://www.w3.org/2000/svg" viewBox="0 0 611.91 94.76"><path d="M78.43 33.06a29.06 29.06 0 01-16.07 26l18 34.14h-31L34.64 62.63h-7V93.2H0V1.49h42.07c23.99 0 36.36 12.62 36.36 31.57zM37.77 43.82c6.18 0 11.56-3.43 11.56-10.89s-5.65-11.22-11.56-11.22H27.62v22.11zM155.04 93.21H89.65V1.49h65.39v21.7H117.5v14.44h35v19.63h-35v14.23H155zM191.06 65.12c.14 4.3 4.64 8.94 13.44 8.94 8.61 0 11.56-3.43 11.56-7.19 0-4.71-4.57-6.32-12.83-7.8l-11.09-1.95c-15.12-2.68-26.08-10.28-26.08-27.28 0-19 15.26-29.84 38.11-29.84 25.94 0 37.57 14.72 37.57 29H216.2c-.14-3.83-3.83-8.67-12-8.67-7.2 0-10.22 3.3-10.22 7.19s4.5 6 12 7.13l11.76 1.84c12.71 1.88 25.88 8.4 25.88 27.35 0 17.88-12.84 30.92-39.72 30.92-30.11 0-39.25-15.53-39.32-29.64zM307.06 33.13c-.54-5.37-4.84-10.55-13-10.55-9.41 0-14.25 7-14.25 19.69v9.68c0 10.28 2.62 20.23 15 20.23 8.87 0 13-5.78 13-11.09v-1.08h-11.37V41.33h37.84v17.21c0 18-11 36.22-40.26 36.22-30.91 0-42.74-20.23-42.74-42.68V41.94c0-24.06 14.78-41.94 43-41.94 27.49 0 40 17.07 40 33.13zM411.36 93.21h-65.39V1.49h65.39v21.7h-37.5v14.44h35v19.63h-35v14.23h37.5zM440.87 93.21V24.06h-23.32V1.49h74.86v22.58h-23.32v69.15z"/><path d="M500.61 93.21V1.49h28.23v91.73z" fill="#00b1ff"/><path d="M560.36 93.21V24.06h-23.32V1.49h74.87v22.58h-23.33v69.15zM372.57 1.48h60.96v22.58h-60.96z"/></svg>